#tb 0: 1/25
#media_type 0: video
#codec_id 0: rawvideo
#dimensions 0: 352x288
#sar 0: 0/1
0,          0,          0,        1,   152064, 0x19b8407d
0,          1,          1,        1,   152064, 0xab8bede6
0,          2,          2,        1,   152064, 0xf59acd09
0,          3,          3,        1,   152064, 0xc905853b
0,          4,          4,        1,   152064, 0x1c3d32f8
0,          5,          5,        1,   152064, 0x26a91508
0,          6,          6,        1,   152064, 0x9443e44a
0,          7,          7,        1,   152064, 0x0d158c55
0,          8,          8,        1,   152064, 0x4b207062
0,          9,          9,        1,   152064, 0x31d8543f
0,         10,         10,        1,   152064, 0x43520337
0,         11,         11,        1,   152064, 0x4676dd14
0,         12,         12,        1,   152064, 0x8b4291d4
0,         13,         13,        1,   152064, 0xb35e4950
0,         14,         14,        1,   152064, 0xd7164390
0,         15,         15,        1,   152064, 0x7cce0af7
0,         16,         16,        1,   152064, 0x4f67ca7d
0,         17,         17,        1,   152064, 0xd517af08
0,         18,         18,        1,   152064, 0x519b8322
0,         19,         19,        1,   152064, 0xa87d2987
0,         20,         20,        1,   152064, 0xfe8cfd89
0,         21,         21,        1,   152064, 0x3b40b919
0,         22,         22,        1,   152064, 0x83398526
0,         23,         23,        1,   152064, 0x309b6168
0,         24,         24,        1,   152064, 0xa8351c37
0,         25,         25,        1,   152064, 0x7977f8fd
0,         26,         26,        1,   152064, 0x5b24e5a7
0,         27,         27,        1,   152064, 0x0ad0a48e
0,         28,         28,        1,   152064, 0xd93a7d3e
0,         29,         29,        1,   152064, 0xae0f6631
